<svg width="32" height="32" viewBox="0 0 32 32" fill="none" xmlns="http://www.w3.org/2000/svg">
<g clip-path="url(#clip0_311_3016)">
<path d="M25.3149 12.155C25.2711 11.1632 25.1107 10.4813 24.881 9.89048C24.6439 9.2633 24.2793 8.70179 23.8015 8.23501C23.3347 7.76096 22.7695 7.3926 22.1496 7.15928C21.5553 6.92952 20.877 6.76912 19.8852 6.72539C18.886 6.67796 18.5687 6.66699 16.0344 6.66699C13.5 6.66699 13.1828 6.67796 12.1873 6.72169C11.1954 6.76542 10.5136 6.92595 9.92285 7.15557C9.29553 7.3926 8.73402 7.75725 8.26723 8.23501C7.79318 8.70179 7.42497 9.26701 7.1915 9.88692C6.96174 10.4813 6.80135 11.1595 6.75762 12.1513C6.71019 13.1506 6.69922 13.4678 6.69922 16.0021C6.69922 18.5365 6.71019 18.8537 6.75392 19.8493C6.79765 20.8411 6.95818 21.523 7.18794 22.1138C7.42497 22.741 7.79318 23.3025 8.26723 23.7693C8.73402 24.2433 9.29924 24.6117 9.91915 24.845C10.5136 25.0748 11.1917 25.2352 12.1837 25.2789C13.1791 25.3228 13.4965 25.3336 16.0308 25.3336C18.5652 25.3336 18.8824 25.3228 19.8779 25.2789C20.8698 25.2352 21.5516 25.0748 22.1424 24.845C23.3969 24.36 24.3887 23.3682 24.8737 22.1138C25.1033 21.5194 25.2639 20.8411 25.3076 19.8493C25.3513 18.8537 25.3623 18.5365 25.3623 16.0021C25.3623 13.4678 25.3586 13.1506 25.3149 12.155ZM23.6339 19.7763C23.5937 20.688 23.4406 21.1802 23.313 21.5084C22.9993 22.3216 22.3539 22.9671 21.5407 23.2807C21.2125 23.4083 20.7166 23.5615 19.8086 23.6015C18.824 23.6454 18.5287 23.6562 16.0381 23.6562C13.5475 23.6562 13.2485 23.6454 12.2675 23.6015C11.3558 23.5615 10.8635 23.4083 10.5354 23.2807C10.1307 23.1311 9.76232 22.8941 9.46333 22.5842C9.15337 22.2815 8.91635 21.9168 8.76678 21.5121C8.63915 21.1839 8.48603 20.688 8.446 19.78C8.40213 18.7955 8.3913 18.5 8.3913 16.0094C8.3913 13.5188 8.40213 13.2198 8.446 12.2389C8.48603 11.3273 8.63915 10.835 8.76678 10.5068C8.91635 10.102 9.15337 9.73379 9.46704 9.43466C9.76958 9.12471 10.1342 8.88768 10.5391 8.73826C10.8673 8.61063 11.3632 8.4575 12.2712 8.41733C13.2557 8.3736 13.5512 8.36264 16.0416 8.36264C18.536 8.36264 18.8313 8.3736 19.8123 8.41733C20.7239 8.4575 21.2162 8.61063 21.5444 8.73826C21.9491 8.88768 22.3174 9.12471 22.6164 9.43466C22.9264 9.73735 23.1634 10.102 23.313 10.5068C23.4406 10.835 23.5937 11.3309 23.6339 12.2389C23.6776 13.2235 23.6886 13.5188 23.6886 16.0094C23.6886 18.5 23.6776 18.7918 23.6339 19.7763Z" fill="#5F646B"/>
<path d="M16.0345 11.207C13.3872 11.207 11.2393 13.3548 11.2393 16.0022C11.2393 18.6497 13.3872 20.7974 16.0345 20.7974C18.6819 20.7974 20.8297 18.6497 20.8297 16.0022C20.8297 13.3548 18.6819 11.207 16.0345 11.207ZM16.0345 19.1128C14.317 19.1128 12.9239 17.7198 12.9239 16.0022C12.9239 14.2847 14.317 12.8917 16.0345 12.8917C17.752 12.8917 19.145 14.2847 19.145 16.0022C19.145 17.7198 17.752 19.1128 16.0345 19.1128Z" fill="#5F646B"/>
<path d="M22.1395 11.0179C22.1395 11.6361 21.6382 12.1374 21.0199 12.1374C20.4017 12.1374 19.9004 11.6361 19.9004 11.0179C19.9004 10.3996 20.4017 9.89844 21.0199 9.89844C21.6382 9.89844 22.1395 10.3996 22.1395 11.0179Z" fill="#5F646B"/>
<circle cx="16" cy="16" r="15.75" stroke="#5F646B" stroke-width="0.5"/>
</g>
<defs>
<clipPath id="clip0_311_3016">
<rect width="32" height="32" fill="white"/>
</clipPath>
</defs>
</svg>
