<svg width="32" height="32" viewBox="0 0 32 32" fill="none" xmlns="http://www.w3.org/2000/svg">
<path opacity="0.2" d="M0.25 16C0.25 7.30151 7.30151 0.25 16 0.25C24.6985 0.25 31.75 7.30151 31.75 16C31.75 24.6985 24.6985 31.75 16 31.75C7.30151 31.75 0.25 24.6985 0.25 16Z" stroke="#CACACA" stroke-width="0.5"/>
<path opacity="0.2" d="M15.5208 13.0056L15.5544 13.5592L14.9948 13.4914C12.9579 13.2316 11.1784 12.3503 9.66756 10.8701L8.92891 10.1357L8.73865 10.6781C8.33575 11.887 8.59316 13.1638 9.43253 14.0225C9.8802 14.497 9.77948 14.5648 9.00725 14.2824C8.73865 14.192 8.50363 14.1242 8.48124 14.1581C8.4029 14.2372 8.6715 15.2653 8.88414 15.6721C9.17513 16.237 9.76828 16.7907 10.4174 17.1183L10.9658 17.3782L10.3167 17.3895C9.68994 17.3895 9.66756 17.4008 9.73471 17.6381C9.95854 18.3725 10.8427 19.1521 11.8276 19.4911L12.5214 19.7283L11.9171 20.0899C11.0218 20.6096 9.96973 20.9034 8.91772 20.926C8.41409 20.9373 8 20.9825 8 21.0164C8 21.1294 9.36538 21.7621 10.16 22.0107C12.5438 22.7451 15.3753 22.4287 17.5017 21.1746C19.0126 20.282 20.5235 18.5081 21.2286 16.7907C21.6091 15.8755 21.9896 14.2033 21.9896 13.4011C21.9896 12.8813 22.0232 12.8135 22.6499 12.1921C23.0192 11.8305 23.3662 11.4351 23.4333 11.3221C23.5452 11.1074 23.534 11.1074 22.9633 11.2995C22.012 11.6385 21.8777 11.5933 22.3477 11.0848C22.6947 10.7233 23.1088 10.0679 23.1088 9.87584C23.1088 9.84195 22.9409 9.89844 22.7506 10.0001C22.5492 10.1131 22.1015 10.2826 21.7658 10.3843L21.1614 10.5764L20.613 10.2035C20.3108 10.0001 19.8856 9.77415 19.6617 9.70636C19.0909 9.54818 18.218 9.57078 17.7032 9.75156C16.3042 10.26 15.4201 11.5707 15.5208 13.0056Z" fill="#CACACA"/>
</svg>
