<svg width="48" height="48" viewBox="0 0 48 48" fill="none" xmlns="http://www.w3.org/2000/svg">
<g clip-path="url(#clip0_115_658)">
<path d="M24 0C10.7433 0 0 10.7433 0 24C0 31.1528 3.12756 37.578 8.09764 41.9811C12.3402 45.7228 17.9055 48 24 48C30.1039 48 35.6693 45.7228 39.9024 41.9717C44.8724 37.578 48 31.1528 48 24C48 10.7433 37.2567 0 24 0Z" fill="#F5F5F5"/>
<path d="M38.022 40.0252C36.7936 39.1087 34.5637 37.5874 32.1354 36.463C29.707 35.348 28.2803 32.7307 28.6677 30.0945C28.6677 30.0567 28.6771 30.0189 28.6866 29.9717C28.6866 29.9717 34.2141 26.2299 33.4488 22.5827C33.4488 22.5827 33.6188 22.5921 33.874 22.5732C36.3118 22.3465 36.4629 18.7181 34.0535 18.3307C34.0346 18.3307 34.0062 18.3213 33.9873 18.3213L33.9118 17.9244C34.6488 15.3449 36.444 7.53072 31.011 8.28663C31.011 8.28663 27.1086 1.83308 18.8598 4.94174C10.6015 8.04096 12.7559 15.4394 12.7559 15.4394L13.7763 18.3874C11.5559 18.9354 11.7637 22.3654 14.1259 22.5827C14.381 22.6016 14.5606 22.5921 14.5606 22.5921C13.7858 26.2394 19.3133 29.9811 19.3133 29.9811C19.3228 30.0284 19.3228 30.0662 19.3322 30.1039C19.7102 32.7402 18.2834 35.3575 15.8645 36.4724C13.4267 37.5969 11.2062 39.1276 9.9779 40.0347C9.24089 40.5732 8.58892 41.2252 8.08813 41.9906C12.3401 45.7228 17.9055 48 23.9999 48C30.1039 48 35.6692 45.7228 39.9023 41.9717C39.411 41.2158 38.759 40.5638 38.022 40.0252Z" fill="#CACACA"/>
</g>
<defs>
<clipPath id="clip0_115_658">
<rect width="48" height="48" fill="white"/>
</clipPath>
</defs>
</svg>
