<svg width="32" height="32" viewBox="0 0 32 32" fill="none" xmlns="http://www.w3.org/2000/svg">
<path opacity="0.2" d="M0.25 16C0.25 7.30151 7.30151 0.25 16 0.25C24.6985 0.25 31.75 7.30151 31.75 16C31.75 24.6985 24.6985 31.75 16 31.75C7.30151 31.75 0.25 24.6985 0.25 16Z" stroke="#CACACA" stroke-width="0.5"/>
<path opacity="0.2" d="M16.8371 21.2507C16.8371 21.2507 17.1451 21.2171 17.3029 21.0508C17.4473 20.8984 17.4423 20.6108 17.4423 20.6108C17.4423 20.6108 17.4231 19.2678 18.0583 19.0696C18.6843 18.8745 19.4882 20.3683 20.3413 20.9426C20.9857 21.3769 21.4748 21.2819 21.4748 21.2819L23.7545 21.2507C23.7545 21.2507 24.9465 21.1786 24.3814 20.2585C24.3346 20.1831 24.0517 19.5776 22.6869 18.3338C21.257 17.0318 21.449 17.2424 23.1702 14.9899C24.2186 13.6183 24.6376 12.7809 24.5066 12.4228C24.3822 12.0803 23.6109 12.1713 23.6109 12.1713L21.045 12.1869C21.045 12.1869 20.8546 12.1615 20.7136 12.2442C20.5758 12.3253 20.4865 12.5146 20.4865 12.5146C20.4865 12.5146 20.0808 13.5757 19.5391 14.4786C18.3964 16.3828 17.9398 16.4836 17.7528 16.3656C17.3179 16.0895 17.4264 15.2579 17.4264 14.6671C17.4264 12.821 17.7119 12.0517 16.8713 11.8526C16.5925 11.7862 16.3872 11.7428 15.6735 11.7354C14.7578 11.7264 13.9831 11.7387 13.5441 11.9492C13.2519 12.0894 13.0265 12.4024 13.1643 12.4204C13.3337 12.4425 13.7177 12.522 13.9214 12.794C14.1843 13.1455 14.1751 13.9338 14.1751 13.9338C14.1751 13.9338 14.3262 16.1067 13.822 16.3763C13.4764 16.5615 13.0023 16.1837 11.9831 14.4557C11.4614 13.5708 11.0674 12.5924 11.0674 12.5924C11.0674 12.5924 10.9915 12.4097 10.8554 12.3114C10.6909 12.1926 10.4614 12.1557 10.4614 12.1557L8.02318 12.1713C8.02318 12.1713 7.65673 12.1811 7.52234 12.3376C7.40297 12.4761 7.51316 12.7637 7.51316 12.7637C7.51316 12.7637 9.42219 17.1481 11.5841 19.358C13.5666 21.3835 15.817 21.2507 15.817 21.2507H16.8371Z" fill="#CACACA"/>
</svg>
