<svg width="32" height="32" viewBox="0 0 32 32" fill="none" xmlns="http://www.w3.org/2000/svg">
<circle opacity="0.2" cx="16" cy="16" r="15.75" stroke="#CACACA" stroke-width="0.5"/>
<path opacity="0.2" fill-rule="evenodd" clip-rule="evenodd" d="M15.998 8H16.002C20.413 8 24 11.589 24 16C24 20.411 20.413 24 16.002 24C14.375 24 12.866 23.516 11.601 22.678L8.526 23.661L9.523 20.689C8.564 19.372 8 17.75 8 16C8 11.588 11.587 8 15.998 8ZM19.0866 20.4262C19.6976 20.2942 20.4636 19.8422 20.6566 19.2972C20.8496 18.7512 20.8496 18.2862 20.7936 18.1872C20.7483 18.1086 20.6414 18.0571 20.4818 17.9803C20.4402 17.9603 20.3951 17.9386 20.3466 17.9142C20.1116 17.7972 18.9686 17.2322 18.7526 17.1572C18.5406 17.0772 18.3386 17.1052 18.1786 17.3312C18.1481 17.3738 18.1178 17.4165 18.0876 17.459C17.8945 17.7304 17.7083 17.9923 17.5536 18.1592C17.4126 18.3092 17.1826 18.3282 16.9896 18.2482C16.9685 18.2394 16.9444 18.2297 16.9174 18.2188C16.6118 18.0953 15.934 17.8216 15.1136 17.0912C14.4216 16.4752 13.9516 15.7082 13.8156 15.4782C13.682 15.2475 13.7972 15.1122 13.9037 14.9871C13.9056 14.9848 13.9076 14.9825 13.9096 14.9802C13.9782 14.8953 14.0448 14.8246 14.1117 14.7535C14.1599 14.7024 14.2082 14.6511 14.2576 14.5942C14.2649 14.5857 14.272 14.5775 14.279 14.5695C14.3838 14.449 14.4462 14.3772 14.5166 14.2272C14.5966 14.0722 14.5396 13.9122 14.4826 13.7942C14.4433 13.7115 14.2011 13.1238 13.9931 12.6192C13.9041 12.4032 13.8214 12.2025 13.7636 12.0632C13.6086 11.6922 13.4906 11.6782 13.2556 11.6682C13.2484 11.6678 13.2411 11.6675 13.2337 11.6671C13.1595 11.6633 13.0777 11.6592 12.9876 11.6592C12.6816 11.6592 12.3626 11.7492 12.1696 11.9462C12.1628 11.9531 12.1558 11.9602 12.1485 11.9676C11.9016 12.2187 11.3516 12.7781 11.3516 13.8932C11.3516 15.0412 12.1214 16.0695 12.3016 16.3062C12.3425 16.3599 12.3938 16.432 12.4558 16.5192C12.9638 17.2334 14.1892 18.9561 16.2846 19.8242C18.1226 20.5862 18.6686 20.5152 19.0866 20.4262Z" fill="#CACACA"/>
</svg>
