<svg width="32" height="32" viewBox="0 0 32 32" fill="none" xmlns="http://www.w3.org/2000/svg">
<path opacity="0.2" d="M0.25 16C0.25 7.30151 7.30151 0.25 16 0.25C24.6985 0.25 31.75 7.30151 31.75 16C31.75 24.6985 24.6985 31.75 16 31.75C7.30151 31.75 0.25 24.6985 0.25 16Z" stroke="#CACACA" stroke-width="0.5"/>
<path opacity="0.2" fill-rule="evenodd" clip-rule="evenodd" d="M22.6679 10.5C23.4023 10.7015 23.9806 11.2953 24.1768 12.0493C24.5335 13.4158 24.5335 16.2671 24.5335 16.2671C24.5335 16.2671 24.5335 19.1183 24.1768 20.485C23.9806 21.239 23.4023 21.8327 22.6679 22.0343C21.3371 22.4005 16.0002 22.4005 16.0002 22.4005C16.0002 22.4005 10.6632 22.4005 9.3323 22.0343C8.59795 21.8327 8.01962 21.239 7.82335 20.485C7.4668 19.1183 7.4668 16.2671 7.4668 16.2671C7.4668 16.2671 7.4668 13.4158 7.82335 12.0493C8.01962 11.2953 8.59795 10.7015 9.3323 10.5C10.6632 10.1338 16.0002 10.1338 16.0002 10.1338C16.0002 10.1338 21.3371 10.1338 22.6679 10.5ZM14.4004 13.8672V19.2005L18.667 16.5339L14.4004 13.8672Z" fill="#CACACA"/>
</svg>
